<?xml version="1.0" encoding="UTF-8"?>
<svg width="18px" height="18px" fill="#B4BECC" viewBox="0 0 18 18" version="1.1" xmlns="http://www.w3.org/2000/svg" xmlns:xlink="http://www.w3.org/1999/xlink">
    <!-- Generator: Sketch 54.1 (76490) - https://sketchapp.com -->
    <title>Combined Shape Copy 4</title>
    <desc>Created with Sketch.</desc>
    <path d="M13.6 5H2.4C1.1 5 0 6.1 0 7.4V12h3v3h10v-3h3V7.4C16 6.1 14.9 5 13.6 5zm-2.1 9h-7v-4h7v4zm2-5.8c-.4 0-.8-.3-.8-.7 0-.4.3-.8.7-.8.4 0 .8.3.8.7.1.5-.3.8-.7.8zM13 1H3v3h10V1z"/>
</svg>