<?xml version="1.0" encoding="UTF-8"?>
<svg width="12px" height="16px" viewBox="0 0 12 16" version="1.1" xmlns="http://www.w3.org/2000/svg" xmlns:xlink="http://www.w3.org/1999/xlink">
    <!-- Generator: Sketch 54.1 (76490) - https://sketchapp.com -->
    <title>trashicon</title>
    <desc>Created with Sketch.</desc>
    <g id="Master" stroke="none" stroke-width="1" fill="none" fill-rule="evenodd">
        <g id="Replacements-Needed" transform="translate(-1270.000000, -1509.000000)" fill="#252A30" fill-rule="nonzero">
            <g id="Weekly-Schedule" transform="translate(20.000000, 1146.000000)">
                <g id="Group-3" transform="translate(1233.000000, 346.000000)">
                    <g id="trashicon" transform="translate(17.000000, 17.000000)">
                        <path d="M11,4 L1,4 L1,14 C1,15.1 1.9,16 3,16 L9,16 C10.1,16 11,15.1 11,14 L11,4 M7.5,0 L4.5,0 L3.5,1 L1,1 C0.4,1 0,1.4 0,2 L0,3 L12,3 L12,2 C12,1.4 11.6,1 11,1 L8.5,1 L7.5,0"></path>
                    </g>
                </g>
            </g>
        </g>
    </g>
</svg>