<?xml version="1.0" encoding="UTF-8"?>
<svg width="18px" height="18px" viewBox="0 0 18 18" version="1.1" xmlns="http://www.w3.org/2000/svg" xmlns:xlink="http://www.w3.org/1999/xlink">
    <!-- Generator: Sketch 54.1 (76490) - https://sketchapp.com -->
    <title>Combined Shape Copy 4</title>
    <desc>Created with Sketch.</desc>
    <g id="Brand-Styles" stroke="none" stroke-width="1" fill="none" fill-rule="evenodd">
        <g id="Profile" transform="translate(-1342.000000, -272.000000)" fill="#B4BECC" fill-rule="nonzero">
            <g id="Group-3" transform="translate(248.000000, 261.000000)">
                <path d="M1103,11 C1107.968,11 1112,15.032 1112,20 C1112,24.968 1107.968,29 1103,29 C1098.032,29 1094,24.968 1094,20 C1094,15.032 1098.032,11 1103,11 Z M1103,13.7 C1101.506,13.7 1100.3,14.906 1100.3,16.4 C1100.3,17.894 1101.506,19.1 1103,19.1 C1104.494,19.1 1105.7,17.894 1105.7,16.4 C1105.7,14.906 1104.494,13.7 1103,13.7 Z M1103,26.48 C1105.25,26.48 1107.239,25.328 1108.4,23.582 C1108.373,21.791 1104.791,20.81 1103,20.81 C1101.2,20.81 1097.627,21.791 1097.6,23.582 C1098.761,25.328 1100.75,26.48 1103,26.48 Z" id="Combined-Shape-Copy-4"></path>
            </g>
        </g>
    </g>
</svg>